<?xml version="1.0" encoding="UTF-8"?>
<svg id="Layer_2" data-name="Layer 2" xmlns="http://www.w3.org/2000/svg" viewBox="0 0 383.36 382.53">
  <defs>
    <style>
      .cls-1 {
        fill: #fff;
      }

      .cls-2 {
        fill: #f6a800;
      }
    </style>
  </defs>
  <polygon class="cls-2" points="120.67 190.17 149.11 172.74 120.64 155.31 120.67 190.17"/>
  <path class="cls-1" d="M175.03,98.22s-23.67-19.17-58.4-17.51c-43.92,1.66-59.11,49.66-60.16,52.34-3.25,8.3-4.61,15.98-5.87,23.09-3.88,21.92-2.25,39.08-1.17,49.7,1.63,15.96,3.16,31.04,11.35,48.91,5.39,11.77,10.48,22.87,22.7,31.7,15.62,11.28,32.59,11.39,38.74,11.35,10.64-.07,19.48-3.31,37.17-9.78,11.45-4.19,16.04-9.29,16.04-9.29l-.37-32.77s-5.49,6.02-16.45,14.68c-3.34,2.64-16.96,13.39-35.61,12.52-15.64-.73-26.3-9.24-29.35-11.74-12.15-9.98-16.11-22.61-19.57-33.65-5.04-16.1-4.75-29.04-4.3-43.43.61-19.58,1.05-33.87,9.39-49.7,4.62-8.78,11.94-22.67,27.78-28.57,19.21-7.15,37.56,2.43,40.3,3.91,17.15,9.28,27.68,22.6,27.68,22.6l.1-34.34Z"/>
  <path class="cls-1" d="M179.92,169.24c-.83-13.95-9.79-21.13-12.72-23.48-8.57-6.89-30.91-8.02-30.91-8.02l-31.36.55.79,114.26,15.31-.16-.78-42.26s26.31.27,31.3-1.57,16.63-5.09,23.48-16.83c2.31-3.59,5.52-11.9,4.89-22.5ZM163.46,181.57c-2.42,8.61-11.49,12.46-15.72,14.18-3.71,1.51-26.7,1.56-26.7,1.56l-.4-45.88s36.2-3.33,41.09,10.17,4.16,11.35,1.74,19.96Z"/>
  <polygon class="cls-1" points="188.14 119.84 187.94 272.54 206.92 272.54 207.15 141.39 238.22 206.8 249.67 190.66 216.02 119.84 188.14 119.84"/>
  <polygon class="cls-1" points="322.59 119.73 322.79 272.44 303.81 272.44 303.57 141.28 272.5 206.7 261.06 190.56 294.71 119.73 322.59 119.73"/>
</svg>